{
    "asset": {
        "version": "2.0",
        "generator": "Open Asset Import Library (assimp v5.0.5eb040c7)"
    },
    "accessors": [
        {
            "bufferView": 0,
            "byteOffset": 0,
            "componentType": 5126,
            "count": 1468,
            "type": "VEC3",
            "max": [
                12.592718124389649,
                78.90719604492188,
                66.6248550415039
            ],
            "min": [
                -12.592718124389649,
                -0.12174899876117706,
                -88.09500122070313
            ]
        },
        {
            "bufferView": 1,
            "byteOffset": 0,
            "componentType": 5126,
            "count": 1468,
            "type": "VEC3",
            "max": [
                0.9991791248321533,
                0.946772575378418,
                0.999985933303833
            ],
            "min": [
                -0.9991791248321533,
                -0.9964935779571533,
                -0.9943770170211792
            ]
        },
        {
            "bufferView": 2,
            "byteOffset": 0,
            "componentType": 5126,
            "count": 1468,
            "type": "VEC2",
            "max": [
                0.9830359816551209,
                0.9802380204200745
            ],
            "min": [
                0.02044299989938736,
                0.015003025531768799
            ]
        },
        {
            "bufferView": 3,
            "byteOffset": 0,
            "componentType": 5125,
            "count": 1728,
            "type": "SCALAR",
            "max": [
                1467
            ],
            "min": [
                0
            ]
        }
    ],
    "buffers": [
        {
            "byteLength": 53888,
            "uri": "result.bin"
        }
    ],
    "bufferViews": [
        {
            "buffer": 0,
            "byteOffset": 0,
            "byteLength": 17616,
            "target": 34962
        },
        {
            "buffer": 0,
            "byteOffset": 17616,
            "byteLength": 17616,
            "target": 34962
        },
        {
            "buffer": 0,
            "byteOffset": 35232,
            "byteLength": 11744,
            "target": 34962
        },
        {
            "buffer": 0,
            "byteOffset": 46976,
            "byteLength": 6912,
            "target": 34963
        }
    ],
    "materials": [
        {
            "name": "DefaultMaterial",
            "pbrMetallicRoughness": {
                "baseColorFactor": [
                    0.6000000238418579,
                    0.6000000238418579,
                    0.6000000238418579,
                    1.0
                ],
                "metallicFactor": 0.0
            }
        },
        {
            "name": "fox_material",
            "pbrMetallicRoughness": {
                "baseColorFactor": [
                    0.6000000238418579,
                    0.6000000238418579,
                    0.6000000238418579,
                    1.0
                ],
                "metallicFactor": 0.0
            }
        }
    ],
    "meshes": [
        {
            "name": "fox1",
            "primitives": [
                {
                    "mode": 4,
                    "material": 1,
                    "indices": 3,
                    "attributes": {
                        "POSITION": 0,
                        "NORMAL": 1,
                        "TEXCOORD_0": 2
                    }
                }
            ]
        }
    ],
    "nodes": [
        {
            "name": "input.obj",
            "children": [
                1
            ]
        },
        {
            "name": "fox1",
            "mesh": 0
        }
    ],
    "scenes": [
        {
            "nodes": [
                0
            ]
        }
    ],
    "scene": 0
}